<?xml version="1.0" encoding="UTF-8" standalone="no"?>
<svg width="30px" height="30px" viewBox="0 0 30 30" version="1.1" xmlns="http://www.w3.org/2000/svg" xmlns:xlink="http://www.w3.org/1999/xlink">
    <!-- Generator: Sketch 40 (33762) - http://www.bohemiancoding.com/sketch -->
    <title>LinkedIn_Logo</title>
    <desc>Created with Sketch.</desc>
    <defs></defs>
    <g id="Home" stroke="none" stroke-width="1" fill="none" fill-rule="evenodd" opacity="0.54">
        <g id="HomeDesktop" transform="translate(-789.000000, -4051.000000)">
            <g id="footer" transform="translate(172.000000, 4034.000000)">
                <g id="LinkedIn_Logo" transform="translate(608.000000, 8.000000)">
                    <path d="M9.3354236,36.1782904 C9.3354236,37.3235035 10.2873433,38.2524416 11.4616511,38.2524416 L35.9815928,38.2524416 C37.1558619,38.2524416 38.1078203,37.3235035 38.1078203,36.1782904 L38.1078203,11.3716584 C38.1078203,10.2260584 37.1558619,9.29750722 35.9815928,9.29750722 L11.4616511,9.29750722 C10.2873433,9.29750722 9.3354236,10.2260584 9.3354236,11.3716584 L9.3354236,36.1782904 L9.3354236,36.1782904 Z" id="path14" fill="#006699" transform="translate(23.721622, 23.774974) scale(1, -1) translate(-23.721622, -23.774974) "></path>
                    <path d="M9.3354236,36.1782904 C9.3354236,37.3235035 10.2873433,38.2524416 11.4616511,38.2524416 L35.9815928,38.2524416 C37.1558619,38.2524416 38.1078203,37.3235035 38.1078203,36.1782904 L38.1078203,11.3716584 C38.1078203,10.2260584 37.1558619,9.29750722 35.9815928,9.29750722 L11.4616511,9.29750722 C10.2873433,9.29750722 9.3354236,10.2260584 9.3354236,11.3716584 L9.3354236,36.1782904 L9.3354236,36.1782904 Z" id="path14" fill="#222E37" transform="translate(23.721622, 23.774974) scale(1, -1) translate(-23.721622, -23.774974) "></path>
                    <path d="M18.0572275,14.1580858 L18.0572275,27.2328603 L13.7114145,27.2328603 L13.7114145,14.1580858 L18.0572275,14.1580858 L18.0572275,14.1580858 Z M15.8843017,29.018 C17.3997746,29.018 18.3430279,30.021996 18.3430279,31.2767008 C18.3147844,32.559649 17.3997746,33.5357884 15.9130481,33.5357884 C14.4264763,33.5357884 13.4545154,32.559649 13.4545154,31.2767008 C13.4545154,30.021996 14.3975752,29.018 15.8559809,29.018 L15.8842243,29.018 L15.8843017,29.018 Z" id="path28" fill="#FFFFFF" transform="translate(15.898772, 23.846937) scale(1, -1) translate(-15.898772, -23.846937) "></path>
                    <path d="M20.4619043,20.1542051 L24.8076786,20.1542051 L24.8076786,27.4557126 C24.8076786,27.8464779 24.8359221,28.2368563 24.9506755,28.5161955 C25.2648353,29.2969523 25.9798971,30.1055656 27.1804364,30.1055656 C28.7529766,30.1055656 29.3820313,28.9065739 29.3820313,27.1489038 L29.3820313,20.1542051 L33.7274574,20.1542051 L33.7274574,27.6510953 C33.7274574,31.6670792 31.5834714,33.5357884 28.7242689,33.5357884 C26.3798319,33.5357884 25.3506102,32.2253706 24.7787775,31.3328007 L24.8077947,31.3328007 L24.8077947,33.2289797 L20.4620204,33.2289797 C20.5190489,32.0021314 20.4620204,20.1542051 20.4620204,20.1542051 L20.4619043,20.1542051 Z" id="path30" fill="#FFFFFF" transform="translate(27.094681, 26.844997) scale(1, -1) translate(-27.094681, -26.844997) "></path>
                    <rect id="Rectangle-8" x="0" y="0" width="48" height="48"></rect>
                </g>
            </g>
        </g>
    </g>
</svg>